<svg width="25" height="16" viewBox="0 0 25 16" fill="none" xmlns="http://www.w3.org/2000/svg">
<path d="M6.25 0.5C5.25544 0.5 4.30161 0.895088 3.59835 1.59835C2.89509 2.30161 2.5 3.25544 2.5 4.25H22.5C22.5 3.25544 22.1049 2.30161 21.4017 1.59835C20.6984 0.895088 19.7446 0.5 18.75 0.5H6.25ZM6.25 15.5C5.25544 15.5 4.30161 15.1049 3.59835 14.4017C2.89509 13.6984 2.5 12.7446 2.5 11.75H22.5C22.5 12.7446 22.1049 13.6984 21.4017 14.4017C20.6984 15.1049 19.7446 15.5 18.75 15.5H6.25ZM1.25 6.75C0.918479 6.75 0.600537 6.8817 0.366116 7.11612C0.131696 7.35054 0 7.66848 0 8C0 8.33152 0.131696 8.64946 0.366116 8.88388C0.600537 9.1183 0.918479 9.25 1.25 9.25H23.75C24.0815 9.25 24.3995 9.1183 24.6339 8.88388C24.8683 8.64946 25 8.33152 25 8C25 7.66848 24.8683 7.35054 24.6339 7.11612C24.3995 6.8817 24.0815 6.75 23.75 6.75H1.25Z" fill="black"/>
</svg>
